<?xml version="1.0" encoding="UTF-8"?>
<svg width="300px" height="230px" viewBox="0 0 300 230" version="1.1" xmlns="http://www.w3.org/2000/svg" xmlns:xlink="http://www.w3.org/1999/xlink">
    <!-- Generator: Sketch 51 (57462) - http://www.bohemiancoding.com/sketch -->
    <title>Group 4</title>
    <desc>Created with Sketch.</desc>
    <defs>
        <path d="M22.4487835,0.046779307 L2.84702983,0.046779307 C1.30689204,0.046779307 0.046779307,1.30689204 0.046779307,2.84702983 L0.046779307,22.4487835 C0.046779307,23.9889213 1.30689204,25.249034 2.84702983,25.249034 L22.4487835,25.249034 C23.9889213,25.249034 25.249034,23.9889213 25.249034,22.4487835 L25.249034,2.84702983 C25.249034,1.30689204 23.9889213,0.046779307 22.4487835,0.046779307 Z M17.5483451,19.648533 L15.4481572,19.648533 L12.6479067,9.14759351 L9.84765614,19.648533 L7.74746825,19.648533 L4.38716762,5.64728036 L6.76738057,5.64728036 L8.92357347,16.1622211 L11.667819,5.64728036 L13.6279944,5.64728036 L16.3862411,16.1622211 L18.5284328,5.64728036 L20.9086457,5.64728036 L17.5483451,19.648533 Z" id="path-1"></path>
        <path d="M18.5807309,0 L2.32259136,0 C1.04516611,0 0,1.04516611 0,2.32259136 L0,18.5807309 C0,19.8581561 1.04516611,20.9033223 2.32259136,20.9033223 L18.5807309,20.9033223 C19.8581561,20.9033223 20.9033223,19.8581561 20.9033223,18.5807309 L20.9033223,2.32259136 C20.9033223,1.04516611 19.8581561,0 18.5807309,0 Z M7.89681063,12.0774751 L7.89681063,16.2581395 L5.8064784,16.2581395 L5.8064784,4.64518272 L10.8000498,4.64518272 C12.5768322,4.64518272 13.2968355,4.99357143 14.0516777,5.67873588 C14.8065199,6.36390033 15.0968439,7.26971096 15.0968439,8.39616777 C15.0968439,9.58068937 14.794907,10.4865 14.0516777,11.1252126 C13.3084485,11.7639252 12.5419934,12.0774751 10.8000498,12.0774751 L7.89681063,12.0774751 Z M7.89681063,10.4516611 L7.89681063,6.27099668 L10.5677907,6.27099668 C11.3342458,6.27099668 11.9265066,6.5613206 12.3097342,6.96777409 C12.6929618,7.37422757 12.8903821,7.80390698 12.8903821,8.41939369 C12.8903821,9.05810631 12.6813488,9.52262458 12.3097342,9.87101329 C11.9381196,10.2310149 11.4968272,10.4516611 10.7071462,10.4516611 L7.89681063,10.4516611 Z" id="path-3"></path>
        <path d="M5.40863282,11.3493902 L6.72880113,11.3493902 L6.72880113,10.0292219 L5.40863282,10.0292219 L5.40863282,11.3493902 Z M21.2506526,0.127959576 L2.7682962,0.127959576 C1.31611106,0.127959576 0.127959576,1.31611106 0.127959576,2.7682962 L0.127959576,21.2506526 C0.127959576,22.7028377 1.31611106,23.8909892 2.7682962,23.8909892 L21.2506526,23.8909892 C22.7028377,23.8909892 23.8909892,22.7028377 23.8909892,21.2506526 L23.8909892,2.7682962 C23.8909892,1.31611106 22.7028377,0.127959576 21.2506526,0.127959576 Z M8.7090536,11.3493902 C8.7090536,12.4451299 7.82454083,13.3296427 6.72880113,13.3296427 L5.40863282,13.3296427 L5.40863282,15.9699793 L3.42838035,15.9699793 L3.42838035,8.04896944 L6.72880113,8.04896944 C7.82454083,8.04896944 8.7090536,8.93348221 8.7090536,10.0292219 L8.7090536,11.3493902 Z M21.9107367,10.0292219 L18.6103159,10.0292219 L18.6103159,11.3493902 L20.5905684,11.3493902 L20.5905684,13.3296427 L18.6103159,13.3296427 L18.6103159,15.9699793 L16.6300635,15.9699793 L16.6300635,8.04896944 L21.9107367,8.04896944 L21.9107367,10.0292219 Z M15.3098952,13.9897268 C15.3098952,15.0854665 14.4253824,15.9699793 13.3296427,15.9699793 L10.0292219,15.9699793 L10.0292219,8.04896944 L13.3296427,8.04896944 C14.4253824,8.04896944 15.3098952,8.93348221 15.3098952,10.0292219 L15.3098952,13.9897268 Z M12.0094744,13.9897268 L13.3296427,13.9897268 L13.3296427,10.0292219 L12.0094744,10.0292219 L12.0094744,13.9897268 Z" id="path-5"></path>
        <polygon id="path-7" points="0.000138813483 0.367155556 43.9804488 0.367155556 43.9804488 48.3998765 0.000138813483 48.3998765"></polygon>
    </defs>
    <g id="任意门-设计规范" stroke="none" stroke-width="1" fill="none" fill-rule="evenodd">
        <g id="切图" transform="translate(-37.000000, -337.000000)">
            <g id="Group-6" transform="translate(37.000000, 311.000000)">
                <g id="Group-4" transform="translate(3.000000, 0.000000)">
                    <g id="书签/icon-1-copy" transform="translate(14.000000, 0.000000)" fill="#F0F2F5" opacity="0.604966518">
                        <path d="M130.606061,81 L254.769231,81 C266.494661,81 276,91.2121717 276,103.809524 L276,217.857143 C276,230.454495 266.494661,240.666667 254.769231,240.666667 L21.2307692,240.666667 C9.50533916,240.666667 1.43595104e-15,230.454495 0,217.857143 L0,103.809524 L-1.42108547e-14,65.1666667 C-1.55071994e-14,54.581209 8.58120896,46 19.1666667,46 L111.515152,46 L130.606061,81 Z M138,55.3333333 L260.666667,55.3333333 L260.666667,69.885026 L147.661467,69.885026 L138,55.3333333 Z" id="Combined-Shape"></path>
                    </g>
                    <g id="word" transform="translate(75.473143, 89.526857) rotate(-22.000000) translate(-75.473143, -89.526857) translate(58.473143, 72.526857)">
                        <g id="ic_drive_ms_word_24px" transform="translate(0.000000, 0.000000)">
                            <rect id="Rectangle" fill="#FFFFFF" x="7.00062631" y="7.00062631" width="19.6017537" height="19.6017537"></rect>
                            <path d="M1.13686838e-13,0 L33.6030063,0 L33.6030063,33.6030063 L1.13686838e-13,33.6030063 L1.13686838e-13,0 Z M1.13686838e-13,0 L33.6030063,0 L33.6030063,33.6030063 L1.13686838e-13,33.6030063 L1.13686838e-13,0 Z" id="Shape"></path>
                            <g id="Path-2" transform="translate(4.153596, 4.153596)">
                                <mask id="mask-2" fill="white">
                                    <use xlink:href="#path-1"></use>
                                </mask>
                                <use id="Mask" fill="#488CFF" fill-rule="nonzero" xlink:href="#path-1"></use>
                                <polygon fill="#FFFFFF" opacity="0.161160714" mask="url(#mask-2)" points="-0.412726193 22.8825154 25.8080585 4.18867937 25.7572227 -0.121691369 -0.101306467 -0.124661098"></polygon>
                            </g>
                        </g>
                    </g>
                    <g id="excel" transform="translate(52.701076, 207.387199) rotate(20.000000) translate(-52.701076, -207.387199) translate(38.701076, 193.387199)">
                        <g id="ic_drive_ms_excel_24px" transform="translate(0.895758, 0.723689)">
                            <polygon id="Shape" points="0 0 27 0 27 27 0 27"></polygon>
                            <rect id="Rectangle" fill="#FFFFFF" x="6" y="6" width="16" height="16"></rect>
                            <path d="M20.7777778,3 L5.22222222,3 C4,3 3,4 3,5.22222222 L3,20.7777778 C3,22 4,23 5.22222222,23 L20.7777778,23 C22,23 23,22 23,20.7777778 L23,5.22222222 C23,4 22,3 20.7777778,3 Z M17.6666667,18.5555556 L15.4444444,18.5555556 L13,14.3333333 L10.5555556,18.5555556 L8.33333333,18.5555556 L11.8888889,13 L8.33333333,7.44444444 L10.5555556,7.44444444 L13,11.6666667 L15.4444444,7.44444444 L17.6666667,7.44444444 L14.1111111,13 L17.6666667,18.5555556 Z" id="Shape" fill="#50E6A4" fill-rule="nonzero"></path>
                        </g>
                    </g>
                    <g id="ppt" transform="translate(195.688800, 115.005183) rotate(-27.000000) translate(-195.688800, -115.005183) translate(185.188800, 104.505183)">
                        <mask id="mask-4" fill="white">
                            <use xlink:href="#path-3"></use>
                        </mask>
                        <use id="Mask" fill="#FF9045" fill-rule="nonzero" xlink:href="#path-3"></use>
                        <polygon id="Path-2" fill="#FFFFFF" opacity="0.161160714" mask="url(#mask-4)" transform="translate(9.915679, 9.111705) rotate(2.000000) translate(-9.915679, -9.111705) " points="-3.75187835 20.9033223 23.5832354 1.74142575 23.5302392 -2.67686902 -3.42722394 -2.67991311"></polygon>
                    </g>
                    <g id="zip" transform="translate(75.520340, 148.607817) rotate(12.000000) translate(-75.520340, -148.607817) translate(60.020340, 133.607817)">
                        <g id="ic_drive_zip_24px" transform="translate(0.000000, 0.000000)">
                            <polygon id="Shape" points="0.802700611 0.122821707 30.0872374 0.122821707 30.0872374 29.4073585 0.802700611 29.4073585"></polygon>
                            <path d="M23.9862922,3.7833888 L6.90364577,3.7833888 C5.56143784,3.7833888 4.46326771,4.88155893 4.46326771,6.22376687 L4.46326771,23.3064133 C4.46326771,24.6486213 5.56143784,25.7467914 6.90364577,25.7467914 L23.9862922,25.7467914 C25.3285002,25.7467914 26.4266703,24.6486213 26.4266703,23.3064133 L26.4266703,6.22376687 C26.4266703,4.88155893 25.3285002,3.7833888 23.9862922,3.7833888 Z M17.8853471,11.104523 L15.444969,11.104523 L15.444969,13.5449011 L17.8853471,13.5449011 L17.8853471,15.9852791 L15.444969,15.9852791 L15.444969,13.5449011 L13.0045909,13.5449011 L13.0045909,11.104523 L15.444969,11.104523 L15.444969,8.66414494 L13.0045909,8.66414494 L13.0045909,6.22376687 L15.444969,6.22376687 L15.444969,8.66414494 L17.8853471,8.66414494 L17.8853471,11.104523 Z M17.8853471,20.8660353 L15.444969,20.8660353 L15.444969,18.4256572 L13.0045909,18.4256572 L13.0045909,15.9852791 L15.444969,15.9852791 L15.444969,18.4256572 L17.8853471,18.4256572 L17.8853471,20.8660353 Z" id="Shape" fill="#052356" fill-rule="nonzero"></path>
                        </g>
                    </g>
                    <g id="链接" transform="translate(247.569367, 144.743015) rotate(10.000000) translate(-247.569367, -144.743015) translate(236.569367, 133.743015)">
                        <rect id="Rectangle-6" fill="#5393FF" x="0" y="0" width="22.577884" height="22.577884" rx="5"></rect>
                        <g id="书签/链接-1-copy" transform="translate(1.371859, 1.371859)">
                            <rect id="Rectangle-12" x="0" y="0" width="17.7541405" height="17.7498931"></rect>
                            <g id="链接" transform="translate(2.959023, 2.958316)" fill="#FFFFFF" fill-rule="nonzero">
                                <path d="M12.8050216,9.65677498 C12.8755003,10.5023165 12.5583463,11.347858 11.9240385,11.9820142 C11.3602092,12.5457085 10.584944,12.8627866 9.7744395,12.8627866 C8.89345633,12.8627866 8.01247315,12.4752467 7.37816526,11.8410906 L4.80569439,9.26923512 C4.13614718,8.59984808 3.7837539,7.71907566 3.7837539,6.87353415 C3.7837539,6.06322353 4.06566853,5.3233747 4.66473708,4.72444946 C4.98189104,4.40737139 5.51048094,4.40737139 5.82763488,4.72444946 C6.14478883,5.04152753 6.14478883,5.56999097 5.82763488,5.88706904 C5.26380565,6.45076339 5.3342843,7.4372285 5.96859219,8.07138464 L8.54106305,10.6432401 C8.89345633,10.9603182 9.35156757,11.1717035 9.7744395,11.1717035 C10.0563541,11.1717035 10.4439867,11.1012417 10.7611407,10.7841637 C11.1135339,10.4318547 11.1487732,10.0090839 11.1487732,9.72723677 C11.1487732,9.30446602 10.9373373,8.88169526 10.6201833,8.56461719 L9.59824287,7.54292119 C9.28108892,7.22584311 9.28108892,6.69737967 9.59824287,6.3803016 C9.91539681,6.06322353 10.4439867,6.06322353 10.7611407,6.3803016 L11.7830811,7.4019976 C12.417389,8.03615373 12.7697823,8.81123347 12.8050216,9.65677498 Z M3.29040334,5.32337471 C3.60755727,5.64045278 3.57231795,6.16891622 3.21992467,6.48599429 C2.90277073,6.80307236 2.37418083,6.80307236 2.05702689,6.48599429 L1.38747968,5.78137636 L1.0350864,5.42906739 C0.400778518,4.79491127 0.0483852564,4.01983153 0.0131459225,3.17429002 C-0.0220933959,2.32874851 0.295060547,1.48320698 0.894129099,0.884281748 C1.45795833,0.320587402 2.23322352,0.00350933275 3.04372805,0.00350933275 C3.92471121,0.00350933275 4.80569439,0.391049193 5.44000227,1.02520533 L8.01247315,3.59706077 C8.68202035,4.26644781 9.03441363,5.14722023 9.03441363,5.99276174 C9.03441363,6.80307236 8.75249901,7.54292119 8.15343045,8.14184643 C7.83627651,8.4589245 7.30768661,8.4589245 6.99053267,8.14184643 C6.67337873,7.82476836 6.67337873,7.29630492 6.99053267,6.97922685 C7.5543619,6.4155325 7.48388325,5.42906739 6.84957536,4.79491125 L4.27710449,2.22305581 C3.92471122,1.87074684 3.46659998,1.69459236 3.04372805,1.69459236 C2.76181342,1.69459236 2.37418083,1.76505415 2.05702689,2.08213222 C1.70463362,2.43444119 1.66939429,2.85721195 1.66939429,3.13905912 C1.70463362,3.56182988 1.91606958,3.94936974 2.23322352,4.26644781 L2.58561679,4.61875677 L3.29040334,5.32337471 C3.255164,5.32337471 3.255164,5.32337471 3.29040334,5.32337471 Z" id="Combined-Shape"></path>
                            </g>
                        </g>
                    </g>
                    <g id="pdf" transform="translate(162.470222, 214.094038) rotate(-29.000000) translate(-162.470222, -214.094038) translate(149.970222, 201.594038)">
                        <rect id="Rectangle-30" fill="#FFFFFF" x="7.35782668" y="8.03325074" width="16.2959329" height="10.8639553"></rect>
                        <g id="Path-2" transform="translate(0.885087, 0.237281)">
                            <mask id="mask-6" fill="white">
                                <use xlink:href="#path-5"></use>
                            </mask>
                            <use id="Mask" fill="#FF5959" fill-rule="nonzero" xlink:href="#path-5"></use>
                            <polygon fill="#FFFFFF" opacity="0.161160714" mask="url(#mask-6)" points="-2.08749139 23.2773581 26.9566779 2.5706193 26.9003683 -2.20388075 -1.74253881 -2.20717025"></polygon>
                        </g>
                    </g>
                    <g id="点点" transform="translate(41.000000, 76.000000)">
                        <circle id="Oval-3" stroke="#FFA902" stroke-width="2" cx="212.5" cy="141.5" r="2.5"></circle>
                        <circle id="Oval-3-Copy" stroke="#FFA902" stroke-width="2" cx="3.5" cy="43.5" r="2.5"></circle>
                        <circle id="Oval-3-Copy-6" stroke="#ECECEC" stroke-width="2" cx="92.5" cy="123.5" r="2.5"></circle>
                        <circle id="Oval-3-Copy-7" stroke="#F8E71C" stroke-width="2" cx="86.5" cy="128.5" r="1.5"></circle>
                        <circle id="Oval-3-Copy-3" stroke="#2878FF" stroke-width="2" cx="168.5" cy="18.5" r="3.5"></circle>
                        <circle id="Oval-3-Copy-4" stroke="#2878FF" stroke-width="2" opacity="0.461272321" cx="54.5" cy="89.5" r="3.5"></circle>
                        <circle id="Oval-3-Copy-5" stroke="#2878FF" stroke-width="2" opacity="0.218415179" cx="23.5" cy="145.5" r="1.5"></circle>
                        <circle id="Oval-3-Copy-2" stroke="#50E3C2" stroke-width="2" cx="226.5" cy="46.5" r="2.5"></circle>
                        <path d="M22.5,49.5 L22.5,48 C22.5,47.4477153 22.9477153,47 23.5,47 C24.0522847,47 24.5,47.4477153 24.5,48 L24.5,49.5 L26,49.5 C26.5522847,49.5 27,49.9477153 27,50.5 C27,51.0522847 26.5522847,51.5 26,51.5 L24.5,51.5 L24.5,53 C24.5,53.5522847 24.0522847,54 23.5,54 C22.9477153,54 22.5,53.5522847 22.5,53 L22.5,51.5 L21,51.5 C20.4477153,51.5 20,51.0522847 20,50.5 C20,49.9477153 20.4477153,49.5 21,49.5 L22.5,49.5 Z" id="Combined-Shape" fill="#1FA5FF"></path>
                        <path d="M29.5,122.5 L29.5,121 C29.5,120.447715 29.9477153,120 30.5,120 C31.0522847,120 31.5,120.447715 31.5,121 L31.5,122.5 L33,122.5 C33.5522847,122.5 34,122.947715 34,123.5 C34,124.052285 33.5522847,124.5 33,124.5 L31.5,124.5 L31.5,126 C31.5,126.552285 31.0522847,127 30.5,127 C29.9477153,127 29.5,126.552285 29.5,126 L29.5,124.5 L28,124.5 C27.4477153,124.5 27,124.052285 27,123.5 C27,122.947715 27.4477153,122.5 28,122.5 L29.5,122.5 Z" id="Combined-Shape-Copy" fill="#FFA902"></path>
                        <path d="M51.5,138.5 L51.5,137 C51.5,136.447715 51.9477153,136 52.5,136 C53.0522847,136 53.5,136.447715 53.5,137 L53.5,138.5 L55,138.5 C55.5522847,138.5 56,138.947715 56,139.5 C56,140.052285 55.5522847,140.5 55,140.5 L53.5,140.5 L53.5,142 C53.5,142.552285 53.0522847,143 52.5,143 C51.9477153,143 51.5,142.552285 51.5,142 L51.5,140.5 L50,140.5 C49.4477153,140.5 49,140.052285 49,139.5 C49,138.947715 49.4477153,138.5 50,138.5 L51.5,138.5 Z" id="Combined-Shape-Copy-2" fill="#FF5C75"></path>
                        <path d="M126.5,38.5 L126.5,37 C126.5,36.4477153 126.947715,36 127.5,36 C128.052285,36 128.5,36.4477153 128.5,37 L128.5,38.5 L130,38.5 C130.552285,38.5 131,38.9477153 131,39.5 C131,40.0522847 130.552285,40.5 130,40.5 L128.5,40.5 L128.5,42 C128.5,42.5522847 128.052285,43 127.5,43 C126.947715,43 126.5,42.5522847 126.5,42 L126.5,40.5 L125,40.5 C124.447715,40.5 124,40.0522847 124,39.5 C124,38.9477153 124.447715,38.5 125,38.5 L126.5,38.5 Z" id="Combined-Shape-Copy-3" fill="#7EAEFF"></path>
                        <path d="M56.5,2.5 L56.5,1 C56.5,0.44771525 56.9477153,-3.38176876e-17 57.5,-4.93038066e-32 C58.0522847,3.38176876e-17 58.5,0.44771525 58.5,1 L58.5,2.5 L60,2.5 C60.5522847,2.5 61,2.94771525 61,3.5 C61,4.05228475 60.5522847,4.5 60,4.5 L58.5,4.5 L58.5,6 C58.5,6.55228475 58.0522847,7 57.5,7 C56.9477153,7 56.5,6.55228475 56.5,6 L56.5,4.5 L55,4.5 C54.4477153,4.5 54,4.05228475 54,3.5 C54,2.94771525 54.4477153,2.5 55,2.5 L56.5,2.5 Z" id="Combined-Shape-Copy-4" fill="#FFA902" opacity="0.253459821"></path>
                        <path d="M175.5,28.5 L175.5,27 C175.5,26.4477153 175.947715,26 176.5,26 C177.052285,26 177.5,26.4477153 177.5,27 L177.5,28.5 L179,28.5 C179.552285,28.5 180,28.9477153 180,29.5 C180,30.0522847 179.552285,30.5 179,30.5 L177.5,30.5 L177.5,32 C177.5,32.5522847 177.052285,33 176.5,33 C175.947715,33 175.5,32.5522847 175.5,32 L175.5,30.5 L174,30.5 C173.447715,30.5 173,30.0522847 173,29.5 C173,28.9477153 173.447715,28.5 174,28.5 L175.5,28.5 Z" id="Combined-Shape-Copy-5" fill="#FFA902" opacity="0.253459821"></path>
                        <path d="M186.5,84.5 L186.5,83 C186.5,82.4477153 186.947715,82 187.5,82 C188.052285,82 188.5,82.4477153 188.5,83 L188.5,84.5 L190,84.5 C190.552285,84.5 191,84.9477153 191,85.5 C191,86.0522847 190.552285,86.5 190,86.5 L188.5,86.5 L188.5,88 C188.5,88.5522847 188.052285,89 187.5,89 C186.947715,89 186.5,88.5522847 186.5,88 L186.5,86.5 L185,86.5 C184.447715,86.5 184,86.0522847 184,85.5 C184,84.9477153 184.447715,84.5 185,84.5 L186.5,84.5 Z" id="Combined-Shape-Copy-6" fill="#FFA902" opacity="0.606138393"></path>
                        <path d="M226.5,131.5 L226.5,130 C226.5,129.447715 226.947715,129 227.5,129 C228.052285,129 228.5,129.447715 228.5,130 L228.5,131.5 L230,131.5 C230.552285,131.5 231,131.947715 231,132.5 C231,133.052285 230.552285,133.5 230,133.5 L228.5,133.5 L228.5,135 C228.5,135.552285 228.052285,136 227.5,136 C226.947715,136 226.5,135.552285 226.5,135 L226.5,133.5 L225,133.5 C224.447715,133.5 224,133.052285 224,132.5 C224,131.947715 224.447715,131.5 225,131.5 L226.5,131.5 Z" id="Combined-Shape-Copy-7" fill="#5393FF"></path>
                        <g id="书签/图标/axure" transform="translate(199.000000, 124.000000) rotate(14.000000) translate(-199.000000, -124.000000) translate(184.000000, 109.000000)">
                            <g id="ic_drive_ai_24px-copy">
                                <polygon id="Shape" points="0 0 30 0 30 30 0 30"></polygon>
                                <path d="M23.75,3.75 L6.25,3.75 C4.875,3.75 3.75,4.875 3.75,6.25 L3.75,23.75 C3.75,25.125 4.875,26.25 6.25,26.25 L23.75,26.25 C25.125,26.25 26.25,25.125 26.25,23.75 L26.25,6.25 C26.25,4.875 25.125,3.75 23.75,3.75 Z" id="Shape" fill="#E278FF" fill-rule="nonzero"></path>
                                <path d="M7.5,20 L7.5,10 L11.429083,10 C12.4171399,10 13.135047,10.0898127 13.5828259,10.2694407 C14.0306049,10.4490687 14.3890329,10.7685289 14.6581207,11.2278308 C14.9272085,11.6871328 15.0617504,12.2123663 15.0617504,12.8035471 C15.0617504,13.5538919 14.8578354,14.1734855 14.4499992,14.6623465 C14.0421629,15.1512075 13.43252,15.459299 12.621052,15.5866303 C12.9579526,16.0982265 14.0216851,17.5693497 15.8122494,20 L13.5796726,20 C12.0447229,17.7517158 11.2183851,16.5601184 11.1006592,16.4252079 C10.9240703,16.2228422 10.8825021,16.0129608 10.6848907,15.9379263 C10.4872794,15.8628918 10.174049,15.8253752 9.74519029,15.8253752 L9.36678743,15.8253752 L9.36678743,20 L7.5,20 Z M9.36678743,14.2291951 L10.7479579,14.2291951 C11.6435158,14.2291951 12.2027055,14.1882678 12.4255439,14.106412 C12.6483822,14.0245562 12.8228662,13.8835844 12.9490012,13.6834925 C13.0751361,13.4834005 13.1382026,13.2332894 13.1382026,12.9331514 C13.1382026,12.5966332 13.055165,12.3249215 12.8890874,12.1180082 C12.7230097,11.9110949 12.4886125,11.780355 12.1858887,11.7257844 C12.0345268,11.7030467 11.5804479,11.691678 10.8236384,11.691678 L9.36678743,11.691678 L9.36678743,14.2291951 Z M16.6675598,20 L16.6675598,10 L19.6632491,10 C20.7984634,10 21.5384438,10.0500222 21.8832126,10.1500682 C22.4129792,10.3001372 22.856547,10.6264186 23.2139293,11.1289222 C23.5713115,11.6314259 23.75,12.2805781 23.75,13.0763984 C23.75,13.6903168 23.6469914,14.2064554 23.440971,14.6248295 C23.2349506,15.0432035 22.9732246,15.3717587 22.6557851,15.6105048 C22.3383455,15.8492509 22.0156552,16.0072756 21.6877044,16.0845839 C21.2420277,16.1800823 20.5966471,16.2278308 19.7515431,16.2278308 L18.5343473,16.2278308 L18.5343473,20 L16.6675598,20 Z M18.5343473,11.691678 L18.5343473,14.5293315 L19.556035,14.5293315 C20.291822,14.5293315 20.7837408,14.4770355 21.0318061,14.372442 C21.2798715,14.2678485 21.4743266,14.1041394 21.6151772,13.8813097 C21.7560279,13.65848 21.8264521,13.3992739 21.8264521,13.1036835 C21.8264521,12.7398799 21.7276479,12.4397465 21.5300366,12.2032742 C21.3324252,11.9668019 21.0822614,11.8190089 20.7795376,11.7598909 C20.5566992,11.7144154 20.108927,11.691678 19.4362074,11.691678 L18.5343473,11.691678 Z" id="RP" fill="#FFFFFF"></path>
                            </g>
                        </g>
                    </g>
                </g>
                <g id="蓝湖logo-2" transform="translate(137.000000, 130.000000)">
                    <g id="Page-1">
                        <g id="Group-3" transform="translate(0.000000, 0.121880)">
                            <mask id="mask-8" fill="white">
                                <use xlink:href="#path-7"></use>
                            </mask>
                            <g id="Clip-2"></g>
                            <path d="M21.9899659,30.4737644 C19.1559972,30.4737644 16.612066,29.2486089 14.8444977,27.3028311 C13.2864009,25.5814533 12.3357226,23.2988311 12.3357226,20.7947422 C12.3357226,15.44972 16.659429,11.1196311 21.9899659,11.1196311 C25.4743215,11.1196311 28.5250859,12.9676311 30.2164827,15.7396311 C30.2199007,15.7430533 30.2233186,15.7464756 30.2233186,15.7503867 C31.1237043,17.2214533 31.6407912,18.9462533 31.6407912,20.7947422 C31.6407912,26.1392756 27.320991,30.4737644 21.9899659,30.4737644 M43.2134809,40.9042089 C40.6466006,38.0275867 38.3853827,34.70852 38.3795234,22.5122089 C38.3912421,22.2310978 38.3917303,22.22132 38.3917303,21.9372756 C38.3917303,16.9569644 36.603166,12.4435422 33.7042563,9.15380889 C33.9234934,8.87172 34.1476133,8.53732 34.3702683,8.16429778 C34.3990767,8.11785333 34.4244672,8.07140889 34.4493694,8.02447556 C34.711575,7.58007556 34.9703626,7.08580889 35.2115722,6.55927556 C35.4483873,6.03958667 35.6637181,5.49887556 35.8473109,4.96109778 C35.8687951,4.89314222 35.8941856,4.82518667 35.9117636,4.75723111 C36.0235794,4.40963111 36.1202586,4.06203111 36.1993597,3.72860889 C36.5660569,2.14900889 36.4972096,0.794786667 35.5851053,0.411008889 C35.0670418,0.192964444 34.4420452,0.808964444 33.7164633,1.71536444 C33.6910728,1.74763111 33.6622644,1.77989778 33.633456,1.81558667 C33.6012296,1.85518667 33.5690032,1.89429778 33.5362885,1.93732 C33.0626583,2.54647556 32.5382472,3.25927556 31.966473,3.91878667 C31.9235045,3.96914222 31.8800477,4.01900889 31.8370792,4.06936444 C31.812177,4.09772 31.7867865,4.12656444 31.761396,4.15540889 C31.1368878,4.85403111 30.4581806,5.47540889 29.7252745,5.83572 C27.4430606,4.48052 24.8380946,3.71198667 22.0729732,3.71198667 C19.2370515,3.71198667 16.5700741,4.52012 14.2463565,5.94132 C13.4240954,5.60545333 12.6672637,4.92785333 11.9763496,4.15540889 C11.9514474,4.12656444 11.9260569,4.09772 11.9011547,4.06936444 C11.8576979,4.01900889 11.8152176,3.96914222 11.7717609,3.91878667 C11.200475,3.25927556 10.6755755,2.54647556 10.2014571,1.93732 C10.1692307,1.89429778 10.136516,1.85518667 10.1042896,1.81558667 C10.0754812,1.77989778 10.047161,1.74763111 10.0217706,1.71536444 C9.29618865,0.808964444 8.67070384,0.192964444 8.15312859,0.411008889 C7.240536,0.794786667 7.172177,2.14900889 7.53838591,3.72860889 C7.61797531,4.06203111 7.71465446,4.40963111 7.82598197,4.75723111 C7.84404827,4.82518667 7.86943876,4.89314222 7.89092301,4.96109778 C8.07402747,5.49887556 8.28984658,6.03958667 8.52714995,6.55927556 C8.76738299,7.08580889 9.0266589,7.58007556 9.28886447,8.02447556 C9.31376668,8.07140889 9.33915716,8.11785333 9.36747732,8.16429778 C9.65800305,8.65123111 9.95194673,9.07265333 10.2317303,9.39678667 C7.45684339,12.6635422 5.7547044,17.0786978 5.7547044,21.9372756 C5.7547044,22.3239867 5.73370842,22.4618533 5.7547044,22.8431867 C5.70538826,34.7857644 3.30842891,38.0520311 0.763032876,40.9042089 C-1.06117575,42.9492311 0.491061728,47.2436311 4.29963435,45.3271867 C11.9763496,41.4644756 13.7658904,48.6335422 21.9792237,48.3939867 C30.1920688,48.1554089 31.761396,41.4644756 39.6773677,45.3271867 C43.5088894,47.1971867 45.0376896,42.9492311 43.2134809,40.9042089" id="Fill-1" fill="#E5EBF5" mask="url(#mask-8)"></path>
                        </g>
                        <path d="M30.8800533,19.5137556 C30.8800533,22.2192667 28.6930537,24.4124222 25.9948265,24.4124222 C23.296111,24.4124222 21.1086231,22.2192667 21.1086231,19.5137556 C21.1086231,16.8082444 23.296111,14.6155778 25.9948265,14.6155778 C28.6930537,14.6155778 30.8800533,16.8082444 30.8800533,19.5137556" id="Fill-4" fill="#CCD9EF"></path>
                    </g>
                </g>
            </g>
        </g>
    </g>
</svg>